<svg width="139" height="88" viewBox="0 0 139 88" fill="none" xmlns="http://www.w3.org/2000/svg">
<g clip-path="url(#clip0_73_164)">
<rect width="139" height="88" fill="#0A0A0A"/>
<path d="M89.2457 63.3893C89.2457 69.775 91.837 75.8992 96.4497 80.4146C101.062 84.9299 107.319 87.4666 113.842 87.4666C120.365 87.4666 126.621 84.9299 131.234 80.4146C135.847 75.8992 138.438 69.775 138.438 63.3893C138.438 57.0035 135.847 50.8794 131.234 46.364C126.621 41.8486 120.365 39.3119 113.842 39.3119C107.319 39.3119 101.062 41.8486 96.4497 46.364C91.837 50.8794 89.2457 57.0035 89.2457 63.3893Z" fill="black" stroke="white" stroke-width="2" stroke-linecap="round" stroke-linejoin="round"/>
<path d="M93.2501 63.6727C93.2501 69.0762 95.4425 74.2584 99.345 78.0793C103.247 81.9002 108.54 84.0467 114.059 84.0467C119.578 84.0467 124.871 81.9002 128.774 78.0793C132.676 74.2584 134.868 69.0762 134.868 63.6727C134.868 58.2692 132.676 53.087 128.774 49.2661C124.871 45.4453 119.578 43.2987 114.059 43.2987C108.54 43.2987 103.247 45.4453 99.345 49.2661C95.4425 53.087 93.2501 58.2692 93.2501 63.6727Z" stroke="white" stroke-linecap="round" stroke-linejoin="round"/>
<path d="M90.334 36.8553L98.444 40.9674L112.232 60.621C110.908 61.2199 109.584 62.1087 108.261 59.7679L96.4471 43.6804L89.825 40.3265L90.334 36.8553Z" fill="black" stroke="white" stroke-linecap="round" stroke-linejoin="round"/>
<path d="M96.2563 17.9122L93.5438 28.721L91.0122 28.5494L94.2672 17.5691L96.2563 17.9122Z" fill="black" stroke="white" stroke-linecap="round" stroke-linejoin="round"/>
<path d="M91.1818 26.2363L81.2039 57.0143L85.1753 57.6562L94.6411 26.6399L91.1818 26.2363Z" fill="black" stroke="white" stroke-width="2" stroke-linecap="round" stroke-linejoin="round"/>
<path d="M0.562308 63.2282C0.562308 69.614 3.15367 75.7382 7.76634 80.2535C12.379 84.7689 18.6352 87.3056 25.1585 87.3056C31.6818 87.3056 37.9379 84.7689 42.5506 80.2535C47.1633 75.7382 49.7546 69.614 49.7546 63.2282C49.7546 56.8425 47.1633 50.7184 42.5506 46.203C37.9379 41.6876 31.6818 39.1509 25.1585 39.1509C18.6352 39.1509 12.379 41.6876 7.76634 46.203C3.15367 50.7184 0.562308 56.8425 0.562308 63.2282Z" fill="black" stroke="white" stroke-width="2" stroke-linecap="round" stroke-linejoin="round"/>
<path d="M4.23644 63.2291C4.23644 68.6326 6.42882 73.8148 10.3313 77.6357C14.2338 81.4566 19.5267 83.6031 25.0456 83.6031C30.5645 83.6031 35.8574 81.4566 39.7599 77.6357C43.6623 73.8148 45.8547 68.6326 45.8547 63.2291C45.8547 57.8256 43.6623 52.6434 39.7599 48.8225C35.8574 45.0016 30.5645 42.8551 25.0456 42.8551C19.5267 42.8551 14.2338 45.0016 10.3313 48.8225C6.42882 52.6434 4.23644 57.8256 4.23644 63.2291Z" stroke="white" stroke-linecap="round" stroke-linejoin="round"/>
<path d="M25.0109 9.4624C32.8047 24.4291 38.709 38.3007 55.0256 50.8162L114.962 57.3507L114.218 61.3924L67.0242 61.0889C67.236 61.8568 67.3579 62.6567 67.3579 63.4886C67.3579 68.6668 62.9958 72.8603 57.6039 72.8603C52.2119 72.8603 47.8242 68.6668 47.8242 63.4886C47.8242 61.6063 48.4213 59.8547 49.4156 58.386C39.8007 48.9881 21.9395 22.9748 21.1015 22.3516C19.8366 21.4109 25.0109 9.4624 25.0109 9.4624Z" fill="black" stroke="white" stroke-width="2" stroke-linecap="round" stroke-linejoin="round"/>
<path d="M34.9236 7.39286L44.3488 0.266724L58.6163 1.75197L58.7971 4.66859L46.316 3.6184L42.5185 9.28012L34.9236 7.39286Z" fill="black" stroke="white" stroke-linecap="round" stroke-linejoin="round"/>
<path d="M35.1319 10.339C34.6205 10.2177 20.8748 14.6457 20.8748 14.6457L21.0026 15.6163L35.7713 11.0669L35.1319 10.339Z" fill="black" stroke="white" stroke-linecap="round" stroke-linejoin="round"/>
<path d="M36.9971 29.8501C36.2299 29.8501 23.2934 29.5928 23.2934 29.5928C21.7546 29.6346 21.1767 28.402 21.0667 27.4446C20.316 21.86 20.1137 16.9346 19.6602 11.7948L20.811 11.7341C21.1665 16.6549 21.4307 21.2203 22.0896 26.7167C22.1597 27.5053 22.2269 28.6533 24.0606 28.5217L37.5086 28.6222" fill="black"/>
<path d="M36.9971 29.8501C36.2299 29.8501 23.2934 29.5928 23.2934 29.5928C21.7546 29.6346 21.1767 28.402 21.0667 27.4446C20.316 21.86 20.1137 16.9346 19.6602 11.7948L20.811 11.7341C21.1665 16.6549 21.4307 21.2203 22.0896 26.7167C22.1597 27.5053 22.2269 28.6533 24.0606 28.5217L37.5086 28.6222" stroke="white" stroke-linecap="round" stroke-linejoin="round"/>
<path d="M41.0015 18.1929L22.5759 61.251L26.4463 62.3415L46.7453 17.3369L44.8209 6.52221C40.7131 6.98547 39.1296 3.02626 35.5733 6.63026C33.5152 11.5294 39.486 12.9244 41.0015 18.1929Z" fill="black" stroke="white" stroke-width="2" stroke-linecap="round" stroke-linejoin="round"/>
<path d="M62.9846 64.8036C62.9841 65.5346 63.1315 66.2585 63.4183 66.934C63.7051 67.6095 64.1257 68.2233 64.6561 68.7404C65.1865 69.2574 65.8163 69.6676 66.5094 69.9474C67.2026 70.2273 67.9456 70.3713 68.6959 70.3713C69.4463 70.3713 70.1892 70.2273 70.8824 69.9474C71.5756 69.6676 72.2053 69.2574 72.7357 68.7404C73.2661 68.2233 73.6867 67.6095 73.9735 66.934C74.2603 66.2585 74.4077 65.5346 74.4072 64.8036C74.4077 64.0727 74.2603 63.3487 73.9735 62.6733C73.6867 61.9978 73.2661 61.384 72.7357 60.8669C72.2053 60.3499 71.5756 59.9397 70.8824 59.6598C70.1892 59.38 69.4463 59.236 68.6959 59.236C67.9456 59.236 67.2026 59.38 66.5094 59.6598C65.8163 59.9397 65.1865 60.3499 64.6561 60.8669C64.1257 61.384 63.7051 61.9978 63.4183 62.6733C63.1315 63.3487 62.9841 64.0727 62.9846 64.8036Z" fill="black" stroke="white" stroke-linecap="round" stroke-linejoin="round"/>
<path d="M70.4995 64.6609L80.7197 74.9331L76.5113 74.6478L66.8093 64.4183L70.4995 64.6609Z" fill="black" stroke="white" stroke-linecap="round" stroke-linejoin="round"/>
<path d="M82.5231 73.2212L82.6061 76.6879L74.1064 76.6452L74.407 72.9358L82.5231 73.2212Z" fill="black" stroke="white" stroke-linecap="round" stroke-linejoin="round"/>
<path d="M103.911 9.95937C106.992 13.0706 105.453 15.8141 103.332 17.0914C101.09 18.1879 98.7711 19.3647 96.9624 20.009C91.4601 17.8474 88.6678 15.2699 82.4718 14.4332C80.189 12.5889 81.8472 11.773 83.0509 10.8386L96.2135 10.9018C99.0959 9.22541 101.589 9.34591 103.911 9.95937Z" fill="black" stroke="white" stroke-linecap="round" stroke-linejoin="round"/>
</g>
<defs>
<clipPath id="clip0_73_164">
<rect width="139" height="88" fill="white"/>
</clipPath>
</defs>
</svg>
