<svg width="206" height="40" viewBox="0 0 206 40" fill="none" xmlns="http://www.w3.org/2000/svg">
<path d="M5.448 3.132C6.62667 3.132 7.64933 3.40933 8.516 3.964C9.38267 4.484 10.128 5.50667 10.752 7.032C12.312 4.224 14.496 2.82 17.304 2.82C24.3067 2.82 27.808 6.512 27.808 13.896C27.808 16.3227 27.3573 18.42 26.456 20.188C25.5547 21.956 24.376 23.308 22.92 24.244C26.2133 25.3187 27.86 27.312 27.86 30.224C27.86 33.4827 26.82 35.9267 24.74 37.556C22.66 39.1853 20.216 40 17.408 40C14.6 40 12.156 39.1853 10.076 37.556C9.17467 39.1853 7.80533 40 5.968 40C5.06667 40 4.16533 39.8267 3.264 39.48C2.36267 39.0987 1.68667 38.7173 1.236 38.336L0.56 37.816C0.906667 36.2907 1.08 32.7547 1.08 27.208C1.08 18.8533 0.941333 12.1453 0.664 7.084L0.508 4.848C1.548 3.704 3.19467 3.132 5.448 3.132ZM12 13.688C12.1387 15.768 12.208 17.5187 12.208 18.94C12.208 20.3267 12.1733 22.1293 12.104 24.348C13.0747 23.828 14.496 23.5507 16.368 23.516C17.408 22.164 17.928 20.708 17.928 19.148C17.928 15.508 15.9693 13.688 12.052 13.688H12ZM14.184 27.832L12 27.884C11.9307 29.2013 11.792 30.7267 11.584 32.46C12.6933 33.396 13.7507 33.864 14.756 33.864C15.7613 33.864 16.472 33.6387 16.888 33.188C17.304 32.7027 17.512 31.94 17.512 30.9C17.512 29.8253 17.148 29.0453 16.42 28.56C15.7267 28.0747 14.9813 27.832 14.184 27.832ZM34.635 40C31.7924 40 30.371 37.9547 30.371 33.864C30.371 23.464 30.4924 16.6173 30.735 13.324C31.463 12.596 32.6244 12.232 34.219 12.232C36.9577 12.232 38.327 14.3987 38.327 18.732V34.176L39.471 36.828C39.3324 37.0707 39.1417 37.3653 38.899 37.712C38.6564 38.0587 38.119 38.5267 37.287 39.116C36.455 39.7053 35.571 40 34.635 40ZM38.535 4.9C38.535 6.32133 38.1884 7.5 37.495 8.436C36.8017 9.33733 35.7444 9.788 34.323 9.788C32.9364 9.788 31.8964 9.28533 31.203 8.28C30.5444 7.24 29.9897 5.66266 29.539 3.548C29.6777 3.30533 29.8684 3.01067 30.111 2.664C30.3537 2.28266 30.8737 1.79733 31.671 1.208C32.503 0.583997 33.3524 0.271997 34.219 0.271997C35.8137 0.271997 36.923 0.687998 37.547 1.52C38.2057 2.31733 38.535 3.444 38.535 4.9ZM50.6319 33.864C50.6319 35.5627 50.8399 36.828 51.2559 37.66C51.0479 38.2147 50.4586 38.752 49.4879 39.272C48.5519 39.7573 47.4946 40 46.3159 40C45.1719 40 44.2706 39.6533 43.6119 38.96C42.9879 38.232 42.6759 37.2613 42.6759 36.048V14.104C42.6759 11.1227 42.3813 8.73066 41.7919 6.928L41.4799 5.94C41.6186 5.76667 41.8093 5.54133 42.0519 5.264C42.3293 4.98666 42.9013 4.62266 43.7679 4.172C44.6693 3.68667 45.5879 3.444 46.5239 3.444C49.2626 3.444 50.6319 5.61067 50.6319 9.944V26.168C51.3599 25.6827 52.1053 25.3707 52.8679 25.232C53.8386 22.2507 54.7226 18.2293 55.5199 13.168C56.5253 12.7173 57.8946 12.492 59.6279 12.492C61.9853 12.492 63.1639 13.7227 63.1639 16.184C63.1639 17.5013 62.6613 19.356 61.6559 21.748C60.6506 24.14 59.4026 26.012 57.9119 27.364L61.0319 32.2C62.0373 33.656 62.7999 34.7307 63.3199 35.424L64.1519 36.516C63.6319 38.0413 62.6266 39.0813 61.1359 39.636C60.5119 39.8787 59.8186 40 59.0559 40C57.2186 40 55.8666 39.1507 54.9999 37.452L50.6319 29.184V33.864ZM83.4988 32.564C83.8801 32.9453 84.0708 33.448 84.0708 34.072C84.0708 34.696 83.8974 35.3373 83.5508 35.996C83.2388 36.62 82.7534 37.244 82.0948 37.868C81.4708 38.4573 80.5694 38.96 79.3908 39.376C78.2121 39.792 76.9121 40 75.4908 40C74.1041 40 72.8561 39.8093 71.7468 39.428C70.6374 39.012 69.5801 38.3707 68.5748 37.504C66.3908 35.5627 65.2988 32.3907 65.2988 27.988C65.2988 23.5853 66.0441 20.3267 67.5348 18.212C69.0254 16.0627 70.7241 14.884 72.6308 14.676C74.0174 13.1853 75.6814 12.44 77.6228 12.44C79.5988 12.44 81.1934 13.1507 82.4068 14.572C83.6548 15.9933 84.2788 17.9347 84.2788 20.396C84.2788 23.2733 83.2214 25.544 81.1068 27.208C79.3734 28.5947 77.2934 29.652 74.8668 30.38C76.0801 31.9747 78.0908 32.772 80.8988 32.772C81.6961 32.772 82.5628 32.7027 83.4988 32.564ZM77.0508 22.944C77.0508 20.8293 75.7508 19.668 73.1508 19.46V24.14C73.1508 25.7 73.2894 26.948 73.5668 27.884C75.8894 26.6013 77.0508 24.9547 77.0508 22.944ZM103.221 32.772C103.602 33.1533 103.793 33.656 103.793 34.28C103.793 34.904 103.672 35.528 103.429 36.152C103.186 36.7413 102.788 37.3307 102.233 37.92C101.713 38.5093 100.933 39.012 99.893 39.428C98.8877 39.8093 97.7263 40 96.409 40C95.1263 40 93.9303 39.8093 92.821 39.428C91.7117 39.012 90.6543 38.3707 89.649 37.504C87.465 35.5627 86.373 32.3907 86.373 27.988C86.373 23.5507 87.1183 20.2747 88.609 18.16C90.1343 16.0107 91.8503 14.8493 93.757 14.676C95.317 13.1853 96.9637 12.44 98.697 12.44C99.8757 12.44 101.037 12.908 102.181 13.844C103.325 14.78 103.897 15.8547 103.897 17.068C103.897 18.2813 103.464 19.4427 102.597 20.552C101.765 21.6613 100.673 22.4413 99.321 22.892C97.7957 21.2627 96.097 20.0493 94.225 19.252V24.14C94.225 27.4333 95.005 29.808 96.565 31.264C97.7437 32.3733 99.3383 32.928 101.349 32.928C101.938 32.928 102.562 32.876 103.221 32.772ZM123.87 32.564C124.251 32.9453 124.442 33.448 124.442 34.072C124.442 34.696 124.269 35.3373 123.922 35.996C123.61 36.62 123.125 37.244 122.466 37.868C121.842 38.4573 120.941 38.96 119.762 39.376C118.583 39.792 117.283 40 115.862 40C114.475 40 113.227 39.8093 112.118 39.428C111.009 39.012 109.951 38.3707 108.946 37.504C106.762 35.5627 105.67 32.3907 105.67 27.988C105.67 23.5853 106.415 20.3267 107.906 18.212C109.397 16.0627 111.095 14.884 113.002 14.676C114.389 13.1853 116.053 12.44 117.994 12.44C119.97 12.44 121.565 13.1507 122.778 14.572C124.026 15.9933 124.65 17.9347 124.65 20.396C124.65 23.2733 123.593 25.544 121.478 27.208C119.745 28.5947 117.665 29.652 115.238 30.38C116.451 31.9747 118.462 32.772 121.27 32.772C122.067 32.772 122.934 32.7027 123.87 32.564ZM117.422 22.944C117.422 20.8293 116.122 19.668 113.522 19.46V24.14C113.522 25.7 113.661 26.948 113.938 27.884C116.261 26.6013 117.422 24.9547 117.422 22.944ZM135.116 33.864C135.116 35.5627 135.324 36.828 135.74 37.66C135.532 38.2147 134.943 38.752 133.972 39.272C133.036 39.7573 131.979 40 130.8 40C129.656 40 128.755 39.6533 128.096 38.96C127.472 38.232 127.16 37.2613 127.16 36.048V22.84C127.16 19.9627 126.883 17.5707 126.328 15.664L126.016 14.676C126.155 14.5027 126.345 14.2773 126.588 14C126.865 13.7227 127.437 13.3587 128.304 12.908C129.171 12.4573 130.072 12.232 131.008 12.232C133.192 12.232 134.509 13.6187 134.96 16.392C135.341 15.3173 136.052 14.3987 137.092 13.636C138.167 12.8387 139.605 12.44 141.408 12.44C143.245 12.44 144.788 13.1333 146.036 14.52C147.284 15.872 147.908 17.744 147.908 20.136V34.176L149.052 36.828C148.913 37.0707 148.723 37.3653 148.48 37.712C148.237 38.0587 147.7 38.5267 146.868 39.116C146.036 39.7053 145.152 40 144.216 40C141.373 40 139.952 37.9547 139.952 33.864V23.828C139.952 21.9213 139.605 20.6387 138.912 19.98C138.219 19.3213 136.953 18.992 135.116 18.992V33.864ZM164.653 13.584C164.999 14.4507 165.173 15.3693 165.173 16.34C165.173 17.276 165.138 17.9693 165.069 18.42C165.034 18.836 164.826 19.304 164.445 19.824C164.063 20.3093 163.561 20.552 162.937 20.552C162.313 20.552 161.411 20.5173 160.233 20.448V28.092C160.233 31.4893 161.706 33.7427 164.653 34.852C164.653 36.1347 164.202 37.3133 163.301 38.388C162.434 39.4627 161.238 40 159.713 40C157.494 40 155.709 39.1853 154.357 37.556C153.005 35.9267 152.329 33.812 152.329 31.212V19.876C151.427 19.6333 150.613 19.3387 149.885 18.992L149.833 18.368C149.833 16.0107 150.647 14.4333 152.277 13.636C152.138 11.244 151.843 9.35466 151.393 7.968L151.185 7.24C151.323 7.06666 151.514 6.84133 151.757 6.564C152.034 6.28667 152.606 5.92267 153.473 5.472C154.339 5.02133 155.241 4.796 156.176 4.796C158.881 4.796 160.233 6.96266 160.233 11.296V13.428C161.342 13.532 162.815 13.584 164.653 13.584ZM184.503 32.564C184.884 32.9453 185.075 33.448 185.075 34.072C185.075 34.696 184.901 35.3373 184.555 35.996C184.243 36.62 183.757 37.244 183.099 37.868C182.475 38.4573 181.573 38.96 180.395 39.376C179.216 39.792 177.916 40 176.495 40C175.108 40 173.86 39.8093 172.751 39.428C171.641 39.012 170.584 38.3707 169.579 37.504C167.395 35.5627 166.303 32.3907 166.303 27.988C166.303 23.5853 167.048 20.3267 168.539 18.212C170.029 16.0627 171.728 14.884 173.635 14.676C175.021 13.1853 176.685 12.44 178.627 12.44C180.603 12.44 182.197 13.1507 183.411 14.572C184.659 15.9933 185.283 17.9347 185.283 20.396C185.283 23.2733 184.225 25.544 182.111 27.208C180.377 28.5947 178.297 29.652 175.871 30.38C177.084 31.9747 179.095 32.772 181.903 32.772C182.7 32.772 183.567 32.7027 184.503 32.564ZM178.055 22.944C178.055 20.8293 176.755 19.668 174.155 19.46V24.14C174.155 25.7 174.293 26.948 174.571 27.884C176.893 26.6013 178.055 24.9547 178.055 22.944ZM192.057 40C189.214 40 187.793 37.9547 187.793 33.864V18.264L186.649 14.676C186.788 14.5027 186.978 14.2773 187.221 14C187.498 13.7227 188.07 13.3587 188.937 12.908C189.804 12.4573 190.705 12.232 191.641 12.232C193.825 12.232 195.142 13.6187 195.593 16.392C197.292 13.7573 199.302 12.44 201.625 12.44C203.982 12.44 205.161 13.5493 205.161 15.768C205.161 17.7093 204.745 19.304 203.913 20.552C203.15 21.6613 202.353 22.5453 201.521 23.204C199.892 21.748 197.968 20.812 195.749 20.396V34.176L196.893 36.828C196.754 37.0707 196.564 37.3653 196.321 37.712C196.078 38.0587 195.541 38.5267 194.709 39.116C193.877 39.7053 192.993 40 192.057 40Z" fill="black"/>
</svg>
